HIERARCHY
ROOT Hips
{
	OFFSET -3.958830 18.904000 13.208200
	CHANNELS 6 Xposition Yposition Zposition Zrotation Yrotation Xrotation 
	JOINT LHipJoint
	{
		OFFSET 0.000000 0.000000 0.000000
		CHANNELS 3 Zrotation Yrotation Xrotation
		JOINT LeftUpLeg
		{
			OFFSET 1.800000 -1.400000 0.085000
			CHANNELS 3 Zrotation Yrotation Xrotation
			JOINT LeftLeg
			{
				OFFSET 2.215000 -6.000000 0.000000
				CHANNELS 3 Zrotation Yrotation Xrotation
				JOINT LeftFoot
				{
					OFFSET 2.500000 -6.900000 0.000000
					CHANNELS 3 Zrotation Yrotation Xrotation
					JOINT LeftToeBase
					{
						OFFSET 0.200000 -0.500000 1.950000
						CHANNELS 3 Zrotation Yrotation Xrotation
						End Site
						{
							OFFSET 0.000000 0.000000 0.000000
						}
					}
				}
			}
		}
	}
	JOINT RHipJoint
	{
		OFFSET 0.000000 0.000000 0.000000
		CHANNELS 3 Zrotation Yrotation Xrotation
		JOINT RightUpLeg
		{
			OFFSET -1.800000 -1.400000 0.085000
			CHANNELS 3 Zrotation Yrotation Xrotation
			JOINT RightLeg
			{
				OFFSET -2.215000 -6.000000 0.000000
				CHANNELS 3 Zrotation Yrotation Xrotation
				JOINT RightFoot
				{
					OFFSET -2.500000 -6.900000 0.000000
					CHANNELS 3 Zrotation Yrotation Xrotation
					JOINT RightToeBase
					{
						OFFSET -0.200000 -0.500000 1.950000
						CHANNELS 3 Zrotation Yrotation Xrotation
						End Site
						{
							OFFSET 0.000000 0.000000 0.000000
						}
					}
				}
			}
		}
	}
	JOINT LowerBack
	{
		OFFSET 0.000000 0.000000 0.000000
		CHANNELS 3 Zrotation Yrotation Xrotation
		JOINT Spine
		{
			OFFSET -0.087000 1.940000 -0.288900
			CHANNELS 3 Zrotation Yrotation Xrotation
			JOINT Spine1
			{
				OFFSET 0.000000 1.950000 0.060000
				CHANNELS 3 Zrotation Yrotation Xrotation
				JOINT Neck
				{
					OFFSET 0.000000 0.000000 0.000000
					CHANNELS 3 Zrotation Yrotation Xrotation
					JOINT Neck1
					{
						OFFSET 0.000000 1.600000 0.340000
						CHANNELS 3 Zrotation Yrotation Xrotation
						JOINT Head
						{
							OFFSET 0.000000 1.667000 -0.240000
							CHANNELS 3 Zrotation Yrotation Xrotation
							End Site
							{
								OFFSET 0.000000 0.000000 0.000000
							}
						}
					}
				}
				JOINT LeftShoulder
				{
					OFFSET 0.000000 0.000000 0.000000
					CHANNELS 3 Zrotation Yrotation Xrotation
					JOINT LeftArm
					{
						OFFSET 2.700000 1.550000 -0.730000
						CHANNELS 3 Zrotation Yrotation Xrotation
						JOINT LeftForeArm
						{
							OFFSET 5.450000 0.000000 0.000000
							CHANNELS 3 Zrotation Yrotation Xrotation
							JOINT LeftHand
							{
								OFFSET 3.450000 0.000000 0.000000
								CHANNELS 3 Zrotation Yrotation Xrotation
								JOINT LeftHandIndex1
								{
									OFFSET 0.750000 0.000000 0.000000
									CHANNELS 3 Zrotation Yrotation Xrotation
									End Site
									{
										OFFSET 0.000000 0.000000 0.000000
									}
								}
							}
						}
					}
				}
				JOINT RightShoulder
				{
					OFFSET 0.000000 0.000000 0.000000
					CHANNELS 3 Zrotation Yrotation Xrotation
					JOINT RightArm
					{
						OFFSET -2.700000 1.550000 -0.730000
						CHANNELS 3 Zrotation Yrotation Xrotation
						JOINT RightForeArm
						{
							OFFSET -5.450000 0.000000 0.000000
							CHANNELS 3 Zrotation Yrotation Xrotation
							JOINT RightHand
							{
								OFFSET -3.450000 0.000000 0.000000
								CHANNELS 3 Zrotation Yrotation Xrotation
								JOINT RightHandIndex1
								{
									OFFSET -0.750000 0.000000 0.000000
									CHANNELS 3 Zrotation Yrotation Xrotation
									End Site
									{
										OFFSET 0.000000 0.000000 0.000000
									}
								}
							}
						}
					}
				}
			}
		}
	}
}
MOTION
Frames: 10
Frame Time: 0.016667
-0.460440 17.443980 -11.456700 10.053628 15.280816 3.501689 -15.531339 10.802989 6.344708 32.308797 6.540019 -50.963603 3.371278 9.523981 24.964574 -0.369068 7.089889 1.778731 0.550130 0.265070 0.676580 18.476041 -9.896469 1.328894 -12.105478 4.666391 -17.002822 1.112369 -4.470377 25.806562 -0.220178 -3.756094 2.804424 0.257370 0.014660 0.190240 -3.586445 -0.793626 -8.884376 -4.226588 1.808989 39.557314 -11.746281 2.781273 0.939398 1.397616 -12.198503 -8.291209 -24.296839 22.403394 20.460716 -11.316710 16.651540 -17.625930 -8.340783 5.092741 -0.025041 -23.614943 -3.684795 -1.658889 15.655467 -16.690134 -2.231073 -3.852925 2.977698 0.521090 0.029130 0.046440 -0.010510 4.914698 5.835550 2.871416 20.932196 16.896899 -4.189831 -112.278025 44.004253 -67.340128 1.931056 -1.544209 -0.218020 0.126220 -0.066990 -0.338070 
-0.455480 17.487620 -11.465320 9.337174 13.927830 5.574803 -15.516780 10.706205 6.355145 31.977355 6.308935 -51.271672 1.397737 10.520874 27.370815 -0.387074 7.507145 1.622426 0.561770 0.255110 0.722670 18.515915 -9.777522 1.493524 -10.981773 5.339307 -20.312701 0.147826 -4.009624 26.505576 -0.193455 -3.558657 2.837590 0.268880 0.009870 0.192880 -3.642685 -0.674768 -8.898393 -2.942122 1.565756 36.582797 -11.716120 2.563600 1.364089 0.959927 -12.459463 -8.220604 -25.142763 23.732147 21.138411 -11.810810 17.143760 -17.400040 -10.039952 3.984958 -0.009754 -28.825823 -5.552334 -1.236148 17.901047 -13.116240 -2.152191 -3.914702 2.922590 0.533700 0.030940 0.047200 -0.026910 7.441547 7.215178 3.010880 28.822556 21.847367 -1.182794 -115.665344 47.202104 -76.760960 1.937047 -1.422263 -0.235560 0.137470 -0.062500 -0.360880 
-0.440030 17.566880 -11.489120 7.255920 12.022272 5.851186 -15.468753 10.678963 6.284416 31.780210 6.320704 -50.171422 -1.527748 12.283701 31.696673 -0.357780 8.247493 1.311702 0.676890 0.364450 0.820630 18.578579 -9.692930 1.676483 -8.478158 5.978004 -21.877238 -1.284014 -3.332168 26.725142 -0.251660 -3.317933 2.877240 0.323540 -0.100650 0.197020 -3.784210 -0.539885 -8.893390 0.059603 0.837338 35.153402 -12.058956 2.990980 3.506260 0.788700 -13.070616 -9.231937 -27.805252 24.463527 22.305246 -12.322050 16.107100 -19.783650 -12.558368 -0.046193 1.187635 -33.765537 -6.508279 -1.047155 20.057555 -8.982697 -1.964237 -3.828592 2.940846 0.604080 -0.058980 0.131910 -0.020890 10.253400 11.630022 3.721090 32.808481 24.537104 -1.573752 -115.961761 49.633366 -82.289170 1.966340 -1.277932 -0.199120 0.130260 -0.116930 -0.379180 
-0.392480 17.617270 -11.495220 5.529890 9.869804 6.853838 -15.413680 10.719491 6.173513 30.277647 5.481430 -49.155853 -4.974301 14.456238 36.259035 -0.266888 9.018369 0.998957 0.724220 0.424240 0.886020 18.613506 -9.663320 1.869357 -6.503430 6.234174 -23.257580 -2.339092 -2.804683 25.665413 -0.265224 -2.987412 2.976105 0.335360 -0.203830 0.194840 -3.897482 -0.459756 -8.861415 3.034317 0.654740 32.878432 -12.824315 3.735546 4.898332 1.179504 -13.087942 -9.954490 -29.255063 24.382064 24.633349 -14.393780 15.387400 -22.221250 -16.318169 -3.788186 1.498628 -35.420984 -8.682051 -0.341064 18.936041 -4.082234 -1.291345 -3.805538 2.903923 0.647540 -0.119530 0.205150 -0.052290 13.068631 15.122224 4.668694 38.231549 25.729925 -2.005022 -115.910738 52.314691 -87.089508 2.022595 -1.076445 -0.158670 0.121640 -0.136980 -0.399070 
-0.335620 17.628940 -11.502720 3.143294 9.527279 8.280513 -15.304630 10.690474 6.027791 27.197238 3.672019 -50.039966 -5.481997 15.440083 41.067893 -0.137196 9.491507 0.854428 0.730570 0.442900 0.886330 18.694824 -9.632242 2.133884 -4.592120 6.684991 -25.108093 -1.945077 -2.866951 25.562630 -0.264930 -2.872348 3.030650 0.329000 -0.225090 0.183630 -4.162737 -0.299066 -8.853940 7.958797 -0.170643 30.085946 -13.855504 4.116133 5.609033 1.730949 -12.768906 -10.778048 -29.794093 23.865578 27.117817 -14.835560 15.032370 -21.135660 -19.980184 -7.606704 1.941876 -36.156644 -10.541459 0.440928 15.680050 -1.256158 -0.884388 -3.799449 2.886220 0.641360 -0.127830 0.220970 -0.043320 15.525666 18.075113 5.745304 43.459988 25.277582 -3.292665 -112.762887 55.110195 -87.148841 2.062518 -0.771224 -0.139080 0.115660 -0.158880 -0.390430 
-0.281680 17.616490 -11.475510 0.852483 8.943964 7.960606 -15.200069 11.061650 5.605961 23.940842 2.070873 -47.213760 -6.381489 15.903282 43.523706 -0.038750 9.665304 0.811340 0.674040 0.355470 0.889270 18.693085 -9.808916 2.346698 -2.292470 6.626586 -24.568641 -2.365540 -2.732992 25.196566 -0.262944 -2.767989 3.103306 0.254550 -0.264890 0.147910 -4.308957 -0.369125 -8.730315 11.688152 -0.401113 29.234314 -14.067452 4.759197 5.266812 2.730473 -12.254603 -11.400644 -30.268597 23.411534 30.691511 -16.710830 15.167040 -20.822700 -24.628262 -10.109300 1.897391 -36.179951 -11.504677 0.446377 12.898605 -1.124191 -0.892764 -3.748179 2.813427 0.683080 -0.167210 0.231960 -0.074870 17.992222 19.838685 6.676312 47.279445 23.400620 -5.415544 -107.749965 59.390553 -84.846921 2.094752 -0.092599 -0.153460 0.113360 -0.145760 -0.414260 
-0.232650 17.586500 -11.466090 -1.444997 9.500964 7.908947 -15.093678 11.312449 5.251444 20.688808 0.410038 -44.651723 -7.733850 15.956461 44.280084 0.019674 9.618596 0.834836 0.654720 0.303080 0.923730 18.710779 -9.938250 2.570346 -0.515749 6.855588 -24.490213 -2.039257 -2.930193 26.088283 -0.311579 -2.856199 3.064689 0.196190 -0.330390 0.155090 -4.490741 -0.381616 -8.639464 15.596593 -0.936705 28.349317 -14.563399 4.851784 4.540632 3.837623 -11.512312 -11.186913 -29.203871 22.628123 34.232523 -19.406200 15.814520 -21.160140 -28.473418 -11.302790 1.403692 -36.371629 -13.285060 0.709399 9.707131 -1.000276 -0.899829 -3.700876 2.787244 0.730830 -0.205250 0.269040 -0.098770 19.278478 20.048040 6.632749 52.172330 22.211132 -10.550518 -91.753228 66.434057 -67.864651 1.590241 1.240952 -0.144420 0.066880 -0.152610 -0.444740 
-0.199480 17.517110 -11.463520 -2.464418 10.303810 8.254632 -15.012967 11.699136 4.851480 16.017919 -1.559686 -41.804251 -8.382393 14.956467 43.271193 0.005426 9.053537 1.031874 0.640600 0.285140 0.935560 18.672311 -10.163414 2.711419 -0.100686 6.582882 -24.431337 -1.928327 -3.061808 26.345838 -0.330443 -2.907135 3.041816 0.161470 -0.374530 0.171920 -4.567604 -0.554229 -8.457899 17.150781 -0.976267 26.395646 -14.343955 4.723005 5.203901 4.530933 -10.373167 -11.514604 -26.606152 21.893718 37.925691 -20.562870 17.321590 -20.361960 -30.130075 -13.539109 2.035838 -37.661839 -14.437931 0.837454 7.709112 -2.184124 -0.975141 -3.660296 2.825535 0.740280 -0.208920 0.292420 -0.114390 19.509299 21.493918 6.774325 56.099788 23.067498 -16.053724 -58.325459 66.123498 -40.298107 1.609912 -0.200333 -0.123440 0.003780 -0.163900 -0.464160 
-0.163070 17.433200 -11.468550 -3.115924 12.701560 9.198051 -14.956630 11.957997 4.571274 11.828072 -3.601177 -38.987241 -9.817840 13.364105 39.535484 -0.106782 8.120168 1.382751 0.594750 0.230640 0.916140 18.650142 -10.282462 2.780729 -0.573061 6.235959 -24.973296 -0.782250 -3.526606 26.149592 -0.302786 -2.935800 3.032434 0.131780 -0.343440 0.187360 -4.661824 -0.826583 -8.253783 18.668132 -1.937500 24.285893 -14.158514 3.366420 4.955409 4.676201 -10.126132 -10.920914 -25.683858 21.263183 37.704343 -20.546980 18.057300 -19.635900 -32.714367 -14.217382 1.958283 -38.334889 -16.134217 0.907794 7.126671 -3.545939 -1.144943 -3.701239 2.833831 0.717350 -0.171230 0.264930 -0.137380 21.656569 21.259905 6.377577 56.036847 22.733641 -14.664620 -37.080551 59.103158 -23.762718 1.837184 -0.915766 -0.129670 -0.010140 -0.131130 -0.472230 
-0.138820 17.329950 -11.463370 -3.689107 14.424061 9.616300 -14.914453 12.212728 4.245953 8.845720 -4.456102 -34.886549 -11.731183 11.969846 34.217608 -0.271055 7.104829 1.793213 0.565180 0.206410 0.898390 18.632083 -10.375051 2.857313 -0.919042 6.188564 -25.654104 -0.363082 -3.864695 27.625945 -0.314134 -3.134591 2.983551 0.141050 -0.290450 0.150140 -4.731107 -1.082062 -8.061425 19.640895 -2.458856 22.594946 -13.859123 2.524916 5.797211 4.694476 -9.841159 -11.051718 -25.382260 20.862338 37.285533 -19.555190 18.192160 -19.202910 -33.163733 -15.958658 2.382805 -39.738461 -18.458940 1.181625 5.916059 -5.953794 -1.347029 -3.699707 2.783508 0.725750 -0.143170 0.235450 -0.130170 22.094812 22.098327 6.596139 56.211642 22.111574 -13.570234 -28.448516 52.247734 -17.025987 1.922648 -1.085516 -0.187190 0.052960 -0.118890 -0.481250 
